Coordinates
version=1
nRows=6
nColumns=34
inDegrees=yes

Units are S.I. units (second, meters, Newtons, ...)
If the header above contains a line with 'inDegrees', this indicates whether rotational values are in degrees (yes) or radians (no).

endheader
time	pelvis_tilt	pelvis_list	pelvis_rotation	pelvis_tx	pelvis_ty	pelvis_tz	hip_flexion_r	hip_adduction_r	hip_rotation_r	knee_angle_r	ankle_angle_r	subtalar_angle_r	mtp_angle_r	hip_flexion_l	hip_adduction_l	hip_rotation_l	knee_angle_l	ankle_angle_l	subtalar_angle_l	mtp_angle_l	lumbar_extension	lumbar_bending	lumbar_rotation	arm_flex_r	arm_add_r	arm_rot_r	elbow_flex_r	pro_sup_r	arm_flex_l	arm_add_l	arm_rot_l	elbow_flex_l	pro_sup_l
      2.70000000	     10.77537239	    -11.27027159	      3.31643731	     -0.82208419	      0.47463963	     -0.26470857	     81.24342684	     -0.37336053	    -13.93267641	     50.87813614	     24.52935065	      6.44948260	      0.00000000	     80.14559300	      0.31115065	     -2.06009868	     36.06720783	     -8.61450241	    -10.89409620	      0.00000000	    -55.59760485	      0.19503768	      8.38066208	     87.57156386	      6.73516701	     21.68868392	     57.82843257	     78.14197320	     20.08848055	    -11.18137682	    -10.17157191	     69.59772374	     62.79271640
      2.71666670	     11.79274259	    -11.05147427	      3.75036031	     -0.82765340	      0.47522972	     -0.26579238	     79.99824067	     -0.37387455	    -13.47516096	     49.72946016	     25.74693495	      6.62923330	      0.00000000	     78.76649104	      0.51364162	     -3.00109423	     35.07907701	     -8.62819743	     -9.17319265	      0.00000000	    -54.76944723	     -0.07311575	      8.62183586	     83.59275795	      6.72431691	     19.51380049	     57.01554638	     77.96209542	     13.79453442	    -12.18853796	    -12.74204596	     72.04429768	     63.16632311
      2.73333330	     12.50599411	    -10.76935050	      4.08090560	     -0.83307895	      0.47278678	     -0.26558972	     79.38077097	     -0.44130461	    -13.02869183	     49.28551975	     26.23012132	      8.39902511	      0.00000000	     77.88307037	      0.86114707	     -3.37423750	     34.30578471	     -8.59681405	     -8.04815047	      0.00000000	    -53.50277238	     -0.07824706	      9.81982279	     79.55569420	      5.25747699	     19.52666072	     56.13366237	     77.96184339	      9.14789018	    -13.72371418	    -12.27769283	     72.74360538	     63.40272230
      2.75000000	     12.30457465	    -10.24078853	      4.02270048	     -0.83067504	      0.47761431	     -0.26371989	     79.27335549	     -0.34617913	    -12.87559327	     49.43991966	     27.32896880	     11.81795169	      0.00000000	     77.44213226	      1.23636003	     -3.51258268	     33.61696133	     -8.38575128	     -7.34861017	      0.00000000	    -51.58482660	     -0.60479799	     11.09509114	     74.58808459	      3.35007273	     19.85441197	     56.99592849	     77.97758282	      4.56082457	    -15.54198298	    -11.25812087	     72.21119495	     63.65324579
      2.76666670	     12.67996495	    -10.09507714	      4.11624478	     -0.83687900	      0.47053768	     -0.25749972	     79.01660933	     -0.22981605	    -12.95445837	     49.41334580	     28.17745366	     14.34901781	      0.00000000	     76.98962777	      1.38170485	     -3.17582138	     32.94880258	     -8.08523620	     -7.05150547	      0.00000000	    -49.77910373	     -0.51035690	     12.87248238	     70.25839158	      1.66272584	     21.41008801	     57.61551562	     78.05687964	     -0.01107647	    -18.04591917	     -9.54291998	     72.83789244	     63.90808195
      2.78333330	     13.40379284	    -10.14499968	      4.38723696	     -0.84755748	      0.47128376	     -0.25599123	     77.42203975	      0.01918558	    -13.63068757	     46.87530101	     29.27664480	     15.50518264	      0.00000000	     76.33257929	      1.80427817	     -2.01763828	     32.43366884	     -8.29704471	     -7.70841296	      0.00000000	    -48.65119252	     -0.12937619	     14.60262764	     67.64867705	     -0.00433181	     23.28509806	     57.22438186	     78.10270972	     -4.45013317	    -20.75750459	     -6.49876480	     73.60352044	     64.19339377
